<?xml version="1.0" encoding="utf-8"?>
<!-- Generator: Adobe Illustrator 15.0.0, SVG Export Plug-In . SVG Version: 6.00 Build 0)  -->
<!DOCTYPE svg PUBLIC "-//W3C//DTD SVG 1.1//EN" "http://www.w3.org/Graphics/SVG/1.1/DTD/svg11.dtd">
<svg version="1.1" id="Layer_1" xmlns="http://www.w3.org/2000/svg" xmlns:xlink="http://www.w3.org/1999/xlink" x="0px" y="0px"
	 width="149.167px" height="172.243px" viewBox="0 0 149.167 172.243" enable-background="new 0 0 149.167 172.243"
	 xml:space="preserve">
<polygon fill="#585858" points="149.167,129.183 74.583,172.243 0,129.183 0,43.061 74.583,0 149.167,43.061 "/>
<g>
	<path fill="#FFFFFF" d="M84.46,60.134c0-6.247,8.795-4.027,8.795-16.475c0-12.449-13.01-14.029-15.04-14.029
		c-4.173,0-10.376,1.654-12.802,11.568c0,0-0.037,0.184-0.105,0.516c-0.714-0.223-3.177-1.169-4.303-3.893
		c-0.074-0.391-0.197-0.765-0.363-1.123c-0.003-0.012-0.009-0.027-0.013-0.038l-0.004,0.01c-0.658-1.407-1.969-2.514-3.646-2.869
		c-2.733-0.576-5.39,1.05-6.011,3.638c-1.697,0.204-3.137,1.397-3.495,3.098c-0.359,1.699,0.475,3.375,1.942,4.249
		c-0.473,2.618,1.298,5.178,4.033,5.753c1.678,0.355,3.322-0.131,4.491-1.15l0.002,0.012c0.013-0.011,0.02-0.021,0.026-0.033
		c0.296-0.26,0.558-0.556,0.783-0.878c2.147-2.057,4.811-1.906,5.529-1.821c-0.778,3.76-1.897,9.168-3.162,15.291
		c-0.439-0.12-3.223-0.987-4.439-3.933c-0.074-0.393-0.197-0.765-0.363-1.124c-0.003-0.014-0.01-0.027-0.013-0.04L56.3,56.873
		c-0.657-1.404-1.968-2.513-3.646-2.868c-2.733-0.576-5.391,1.05-6.011,3.637c-1.697,0.204-3.137,1.399-3.494,3.101
		c-0.36,1.7,0.474,3.371,1.941,4.247c-0.472,2.618,1.298,5.178,4.033,5.755c1.678,0.352,3.321-0.132,4.491-1.151l0.003,0.011
		c0.011-0.011,0.019-0.021,0.027-0.033c0.294-0.26,0.558-0.554,0.782-0.877c2.335-2.235,5.283-1.862,5.674-1.803
		c-1.022,4.951-2.1,10.178-3.144,15.258c-0.86-0.297-3.098-1.287-4.152-3.844c-0.075-0.391-0.199-0.765-0.364-1.125
		c-0.002-0.012-0.01-0.025-0.014-0.036l-0.003,0.01c-0.66-1.408-1.969-2.516-3.646-2.87c-2.734-0.575-5.39,1.05-6.012,3.638
		c-1.696,0.203-3.137,1.397-3.492,3.098c-0.36,1.701,0.474,3.375,1.939,4.248c-0.47,2.621,1.3,5.179,4.033,5.755
		c1.679,0.354,3.322-0.131,4.492-1.151l0.003,0.013c0.012-0.012,0.019-0.021,0.026-0.033c0.297-0.26,0.56-0.556,0.785-0.878
		c2.019-1.934,4.493-1.916,5.38-1.837c-1.188,5.781-2.289,11.163-3.162,15.461c-0.814-0.269-3.134-1.243-4.216-3.863
		c-0.074-0.393-0.197-0.766-0.363-1.124c-0.002-0.013-0.011-0.026-0.014-0.039l-0.003,0.011c-0.66-1.407-1.968-2.514-3.646-2.87
		c-2.733-0.574-5.39,1.051-6.012,3.638c-1.695,0.205-3.135,1.398-3.492,3.099c-0.36,1.701,0.474,3.376,1.939,4.249
		c-0.47,2.62,1.299,5.178,4.034,5.753c1.679,0.353,3.322-0.132,4.492-1.15l0.002,0.012c0.012-0.011,0.02-0.021,0.027-0.033
		c0.296-0.261,0.56-0.555,0.784-0.877c2.086-1.996,4.655-1.915,5.46-1.83c-0.528,2.633-0.864,4.345-0.927,4.754
		c-0.448,2.906-0.188,6.188,7.361,8.35c6.505,1.864,5.76,8.052,5.76,8.052h16.55c0,0,0-4.025,0-6.858
		c0-2.831,2.087-12.076,12.449-16.847c0,0,1.343-0.694,1.343-3.081C94.3,85.928,84.46,72.956,84.46,60.134z M64.764,113.445
		c-1.041,1.122-2.792,1.182-3.91,0.139c-1.118-1.04-1.183-2.792-0.139-3.91c1.042-1.119,2.794-1.182,3.913-0.138
		C65.744,110.576,65.808,112.329,64.764,113.445z M69.169,93.022c-1.042,1.118-2.794,1.179-3.911,0.137
		c-1.119-1.042-1.181-2.791-0.137-3.912c1.04-1.118,2.793-1.182,3.911-0.139C70.149,90.149,70.21,91.902,69.169,93.022z
		 M73.3,72.744c-1.044,1.12-2.791,1.179-3.91,0.138c-1.12-1.042-1.185-2.793-0.142-3.912c1.045-1.119,2.796-1.181,3.915-0.137
		C74.28,69.874,74.342,71.625,73.3,72.744z M77.473,52.664c-1.044,1.119-2.794,1.179-3.913,0.138
		c-1.117-1.039-1.182-2.792-0.138-3.912c1.041-1.117,2.793-1.181,3.912-0.138C78.451,49.792,78.516,51.545,77.473,52.664z"/>
	<rect x="63.959" y="132.257" fill="#FFFFFF" width="16.55" height="11.422"/>
</g>
</svg>
